inDegrees=no
num_controls=7
num_derivatives=13
num_iterations=86
num_multipliers=7
num_parameters=0
num_slacks=7
num_states=26
objective=0.473129
objective_accelerations=0.038356
objective_balance=0.001203
objective_effort=0.016034
objective_height=0.406913
objective_ligament=0.010623
solver_duration=1264.585744
status=Solve_Succeeded
success=true
DataType=double
version=3
OpenSimVersion=4.5
endheader
time	/jointset/ground_pelvis/pelvis_tilt/value	/jointset/ground_pelvis/pelvis_tx/value	/jointset/ground_pelvis/pelvis_ty/value	/jointset/hip_l/hip_flexion_l/value	/jointset/hip_l/hip_adduction_l/value	/jointset/hip_l/hip_rotation_l/value	/jointset/back/lumbar_extension/value	/jointset/patellofemoral_l/patellar_flexion_l/value	/jointset/knee_l/knee_flexion_l/value	/jointset/knee_l/knee_adduction_l/value	/jointset/knee_l/knee_rotation_l/value	/jointset/ankle_l/ankle_angle_l/value	/jointset/subtalar_l/subtalar_angle_l/value	/jointset/ground_pelvis/pelvis_tilt/speed	/jointset/ground_pelvis/pelvis_tx/speed	/jointset/ground_pelvis/pelvis_ty/speed	/jointset/hip_l/hip_flexion_l/speed	/jointset/hip_l/hip_adduction_l/speed	/jointset/hip_l/hip_rotation_l/speed	/jointset/back/lumbar_extension/speed	/jointset/patellofemoral_l/patellar_flexion_l/speed	/jointset/knee_l/knee_flexion_l/speed	/jointset/knee_l/knee_adduction_l/speed	/jointset/knee_l/knee_rotation_l/speed	/jointset/ankle_l/ankle_angle_l/speed	/jointset/subtalar_l/subtalar_angle_l/speed	/forceset/tau_hip_flexion_l	/forceset/tau_hip_adduction_l	/forceset/tau_hip_rotation_l	/forceset/tau_knee_flexion_l	/forceset/tau_ankle_angle_l	/forceset/tau_subtalar_angle_l	/forceset/tau_lumbar_extension	lambda_cid13_p0	lambda_cid13_p1	lambda_cid13_p2	lambda_cid13_p3	lambda_cid13_p4	lambda_cid13_p5	lambda_cid14_p0	/jointset/ground_pelvis/pelvis_tilt/accel	/jointset/ground_pelvis/pelvis_tx/accel	/jointset/ground_pelvis/pelvis_ty/accel	/jointset/hip_l/hip_flexion_l/accel	/jointset/hip_l/hip_adduction_l/accel	/jointset/hip_l/hip_rotation_l/accel	/jointset/back/lumbar_extension/accel	/jointset/patellofemoral_l/patellar_flexion_l/accel	/jointset/knee_l/knee_flexion_l/accel	/jointset/knee_l/knee_adduction_l/accel	/jointset/knee_l/knee_rotation_l/accel	/jointset/ankle_l/ankle_angle_l/accel	/jointset/subtalar_l/subtalar_angle_l/accel	gamma_cid13_p0	gamma_cid13_p1	gamma_cid13_p2	gamma_cid13_p3	gamma_cid13_p4	gamma_cid13_p5	gamma_cid14_p0
1.5	-0.5027741056609368	0.004233865054855622	0.8263160344104393	0.9875829003349907	-0.3487976761080984	-0.1686683089834094	-0.3297631538102195	0.4120856442193813	0.4120856442193823	-0.08661545705275948	-0.1743775808415387	0.01006560790625888	0.07694164379704538	0.9536093138123608	0.4006558652007753	0.2975406466478023	-2.217247746287525	0.002024509971050431	-0.3852714077142043	0.6086411727844735	-1.087076166252656	-1.087076166251211	-0.1913873454969131	-0.001144409331027136	0.09210621595708567	0.03364582319168134	-0.1821921610114332	0.0160968927342369	0.01190260885005925	-0.03735172170592943	0.00734414596255848	0.002057282450660247	0.1528086558650464	-22.24070696282283	-1.565334928221899	5.184067236157395	-6.572389400398765	-439.2171286390462	-62.46353606830171	-24.23834498313343	0.3320133533119424	0.6397995917758723	-0.3364264226049075	-1.349157994247846	0.079577456985754	-0.3265094704550665	1.431081155810211	-0.5300671917617971	-0.5300671917617731	-0.3248855894206389	0.05733359372279387	0.4151745122892934	0.2095934467308167	4.556394059092045e-08	8.57955231915904e-07	-3.3391422642698e-07	1.225017959965924e-07	3.034052675730286e-07	5.631902389961577e-08	1.81629096602309e-07
1.51	-0.4932220636736291	0.00827193137913082	0.829274020181772	0.9653446449728311	-0.3487744516343395	-0.1725385608804477	-0.3236070543497229	0.4011893341123213	0.4011893341123081	-0.08854713187480044	-0.1743880942810106	0.01100685176080671	0.07728741171659526	0.9566548391506358	0.4068993622670551	0.2939882009505066	-2.230083059127685	0.002623897799512846	-0.3887318594985266	0.6224781170442115	-1.092032288851211	-1.092032288851245	-0.1949302017497538	-0.0009479864701816775	0.09612926094779209	0.03550769251880868	-0.1759706525578576	0.01487209727575757	0.01200729902719109	-0.03750146962839269	0.006632255106581358	0.000658124423856449	0.1482143590607748	-22.42049180396477	-1.029104163709822	5.216116731701371	-6.195886751140752	-436.61775952978	-62.1423163279069	-24.43807037044689	0.2691991916183648	0.607945554891072	-0.3748361362594282	-1.202658789835136	0.05051574955831286	-0.3486124170102823	1.344910720570694	-0.4553878195299002	-0.4553878197516725	-0.3662224201941014	0.002239903472270714	0.3939021417929685	0.1743642025035106	4.395941160986349e-08	9.096081169018134e-07	-3.274083228852789e-07	1.287672916582324e-07	3.127317949024378e-07	6.825536151066833e-08	1.870634684850644e-07
1.52	-0.4836438910194399	0.0123706968322359	0.8321944449975378	0.9429876483100891	-0.3487451540215343	-0.1764419771722154	-0.3173156035147263	0.3902480621740973	0.3902480621741432	-0.09051368261475332	-0.174396354837697	0.01198793259513072	0.07765177443477697	0.9588354471902475	0.4127956909667512	0.2900284555344629	-2.240996006405255	0.003239137779212195	-0.3919042866664332	0.6357114476845657	-1.096068532474865	-1.096068532476378	-0.1983625290817078	-0.0006938327610611858	0.1000736119117651	0.03736478291793555	-0.1697491441041159	0.01364730181745142	0.01211198920473054	-0.03765121755082163	0.005920364250661938	-0.0007410336027585132	0.1436200622565914	-22.60104285108831	-0.4927154993652774	5.248114250253025	-5.835500943149105	-434.039398143876	-61.85710020060133	-24.62832826340798	0.1590298935792311	0.5703659184590932	-0.4178863663544891	-0.9646848817300963	0.08274788723310485	-0.2689045471718223	1.310358431933416	-0.3460913967815203	-0.3460913967814042	-0.302779805243391	0.06887976337787442	0.3994357069425569	0.2086376611306851	4.248385939880594e-08	9.3918569775941e-07	-3.253488820604194e-07	1.32122050508867e-07	3.212109822406283e-07	8.062486379345841e-08	1.896811163494809e-07
1.53	-0.4740481274613407	0.01652662137124089	0.8350733055195128	0.920531017664698	-0.348709526387709	-0.1803757202534397	-0.3108947097026967	0.3792709162302287	0.3792709162302241	-0.0925138312203599	-0.1744017272694265	0.01300798362727987	0.07803476119787105	0.9601815452308653	0.4183243334689581	0.285682027881421	-2.250015035763381	0.003895075799089832	-0.3947993154215408	0.6483812712930744	-1.099212635975063	-1.09921263597596	-0.2016361309727691	-0.0003689971631317812	0.1039168704282776	0.03923603850671365	-0.163919274654425	0.01251627477588687	0.01221144796812723	-0.03736213952866548	0.004525892696363043	-0.002118517846210793	0.1392891236730691	-23.01755538726406	0.05449427679074435	5.302465947750357	-5.282917302030934	-431.7436590364244	-61.53940555504181	-24.80923283367958	0.1020545357491205	0.5344074161602745	-0.4521975422040291	-0.82323072366645	0.05818714706003538	-0.2929183388854861	1.23238781116713	-0.2764045983930691	-0.2764045983008469	-0.3348402984875424	0.01593273722023278	0.3738387174133508	0.176779354627046	4.114534500587277e-08	9.453082679806744e-07	-3.280138078722044e-07	1.323841514978085e-07	3.287898708381488e-07	9.345460353996962e-08	1.893059949444121e-07
1.54	-0.464442971967553	0.02073589113527937	0.8379068664494721	0.8979936529735693	-0.3486671052961371	-0.1843370368820314	-0.3043496989574112	0.3682667622969584	0.3682667622969946	-0.09454575382836658	-0.1744035218893924	0.01406588080327794	0.07843654248622892	0.9607138343293377	0.4234647359734488	0.2809685371313373	-2.257142815554023	0.00459782932673003	-0.3974189961448645	0.6605348343358968	-1.101470130345427	-1.10147013034571	-0.2047173295618116	2.172960358684897e-05	0.1076428406811017	0.04112368797052531	-0.1580894052045763	0.01138524773447889	0.01231090673189042	-0.03707306150646697	0.003131421142122749	-0.003496002089490483	0.1349581850896259	-23.434787174496	0.6020674887490665	5.356488786169397	-4.74694640132837	-429.4681979336701	-61.25569245592549	-24.9810180643514	-0.003731894849923203	0.4927179189158072	-0.4912989857628669	-0.5864349682333801	0.0921109887855811	-0.2138349408149635	1.207106318796096	-0.1687695708146729	-0.1687695708147094	-0.264299144839705	0.08205799713575215	0.3759780542048485	0.2119164361373651	4.135642166753362e-08	9.76388593806428e-07	-3.361064991381073e-07	1.336453392695839e-07	3.460542292322812e-07	1.092369373033044e-07	1.931620572990376e-07
1.55	-0.4548364604558691	0.02499467281476299	0.8406915436265804	0.8753941804799467	-0.3486174481425617	-0.1883234192233219	-0.2976857341894694	0.3572443642095908	0.357244364209606	-0.09660754964866958	-0.1744012879875914	0.01516049519568857	0.07885727073928947	0.9604558192708876	0.4282313235965415	0.2759118732350975	-2.262441975030574	0.005342616801262995	-0.3998124779054149	0.6721812800097707	-1.102850863304106	-1.102850863304422	-0.20760287884175	0.0004325949657479351	0.1112754531290231	0.04303031547823328	-0.1523145329440153	0.01017402221923779	0.01236250063536203	-0.03704031090066027	0.002182948366535656	-0.005028897557688637	0.1306899061871696	-23.73042167854172	1.206795891044896	5.388890567150381	-4.347407623737442	-427.4665970452742	-60.91242317724065	-25.14397715312465	-0.05672214243676884	0.4596152145540949	-0.521025796068078	-0.4551822062927253	0.06686344322939541	-0.2452139926092166	1.131887805357001	-0.09897293354789104	-0.09897293355286332	-0.2946700679292137	0.02162172506714112	0.3562448563371069	0.1811627364869259	4.335289671818316e-08	1.036224594567786e-06	-3.504529201663631e-07	1.360576487694072e-07	3.744779332616396e-07	1.284211728686312e-07	2.018931792028759e-07
1.56	-0.4452365062609938	0.02929931757658677	0.8434240190238235	0.8527510112377812	-0.3485601029509408	-0.1923323582219836	-0.2909076101420542	0.3462129092376041	0.3462129092376122	-0.09869699841157011	-0.1743947412482825	0.01629130411583063	0.07929729063310814	0.9594023709686716	0.4326373524414775	0.2705281811582985	-2.265882165264207	0.006135436933448515	-0.4019303276233321	0.6833666902306166	-1.103281507268917	-1.103281507269266	-0.2102479180559971	0.0008842971003362237	0.1148817462269998	0.0449820161219245	-0.146539660683272	0.008962796704149841	0.01241409453872878	-0.03700756029475655	0.001234475591019947	-0.006561793025708625	0.1264216272848041	-24.02527681472762	1.811817346443956	5.420755441089457	-3.971137959337417	-425.4617498951386	-60.59995471601404	-25.29846153113567	-0.1628185436031614	0.4206061632844813	-0.5567046218747262	-0.2146411196496987	0.1017175203160729	-0.1587085322883305	1.114899228190474	0.02124822795901993	0.02124822795904131	-0.2161971317014987	0.09022535162118181	0.3707141842158987	0.2209310633339958	4.381224185959321e-08	1.070796494307244e-06	-3.614353978415543e-07	1.375491253816603e-07	3.936401256329763e-07	1.458496213337042e-07	2.06543499976979e-07
1.57	-0.4356509688784309	0.03364614280109055	0.8461010947757769	0.8300826136669762	-0.3484945509448166	-0.1963609232058196	-0.2840199101183586	0.3351817245820689	0.3351817245821195	-0.1008117097232747	-0.1743832397138488	0.01745790452590971	0.07975704843310343	0.9575793665344636	0.4366596044378842	0.2648390459335451	-2.26749309450804	0.00698346775023058	-0.4037200901245264	0.6941008191172704	-1.102808785605709	-1.102808785605901	-0.2126580857894926	0.001441228156813357	0.118421270072735	0.04697361027546244	-0.1410899665289535	0.007806654524044665	0.01245786686125314	-0.03661196046398153	-0.0003588552835122245	-0.008058513031552387	0.122360905999004	-24.54444758966426	2.421490007394274	5.47348244647919	-3.389346809448482	-423.7442620782859	-60.27799114107412	-25.44353011405585	-0.2108919683885622	0.3828491317481114	-0.5821253490588005	-0.08866368275247397	0.07747014333866765	-0.1795837250446181	1.041795410279445	0.08223870321832198	0.08223870324178165	-0.2478201221800175	0.04209734154582663	0.3430406143327784	0.1887582299982031	4.235017461445393e-08	1.073788267769324e-06	-3.682129463254147e-07	1.378895608844508e-07	4.012254284317859e-07	1.610833359234599e-07	2.06092819338913e-07
1.58	-0.4260874316552255	0.03803115342834384	0.8487198577002261	0.8074072378325396	-0.3484202937743152	-0.200405480537856	-0.2770270436675211	0.3241596580567401	0.3241596580568025	-0.1029494014181006	-0.1743654347969963	0.01865939400036365	0.08023681910236229	0.9550023390978969	0.4402744329913784	0.258865615657479	-2.267277817991987	0.007876469806156658	-0.405128797266105	0.7043999756590023	-1.101457881233833	-1.101457881233869	-0.2148439946432238	0.002144973568673691	0.121859559101691	0.04898458997438676	-0.1356402723744708	0.006650512344058687	0.01250163918337807	-0.03621636063308206	-0.001952186157975606	-0.009555233037250156	0.1183001847132819	-25.06305639470899	3.031598013578159	5.525530937559599	-2.83058727184887	-422.0269272869327	-59.98588316754783	-25.57861702539295	-0.3136231440749117	0.3391214747019896	-0.6135636321372846	0.1506000323275208	0.1107117681448734	-0.08249746036521959	1.02790475920607	0.196884769692678	0.1968847696926402	-0.1713453557486618	0.1195882226977788	0.3504672208600775	0.2248081724112621	3.999999514037541e-08	1.108137278175697e-06	-3.685115076511289e-07	1.415646263048857e-07	4.120092108229528e-07	1.792784150690614e-07	2.08735125773253e-07
